<?xml version="1.0" encoding="UTF-8"?>
<!DOCTYPE svg PUBLIC "-//W3C//DTD SVG 1.1//EN" "http://www.w3.org/Graphics/SVG/1.1/DTD/svg11.dtd">
<!-- Creator: CorelDRAW 2019 (64 Bit) -->
<svg xmlns="http://www.w3.org/2000/svg" xml:space="preserve" width="250mm" height="100mm" version="1.1" style="shape-rendering:geometricPrecision; text-rendering:geometricPrecision; image-rendering:optimizeQuality; fill-rule:evenodd; clip-rule:evenodd"
viewBox="0 0 25000 10000"
 xmlns:xlink="http://www.w3.org/1999/xlink"
 xmlns:xodm="http://www.corel.com/coreldraw/odm/2003">
 <defs>
  <style type="text/css">
   <![CDATA[
    .fil0 {fill:#BD445A}
    .fil1 {fill:#FF385C}
    .fil2 {fill:#FF385C;fill-rule:nonzero}
   ]]>
  </style>
 </defs>
 <g id="Camada_x0020_1">
  <metadata id="CorelCorpID_0Corel-Layer"/>
  <g id="_1690488479104">
   <path class="fil0" d="M5310.01 6796.55c-125.23,330.74 -510.49,918.97 -884.3,1218.36 -1245.07,997.19 -2195.69,-1058.87 -591.09,-1342.02 429.75,-75.83 1164.43,19.54 1475.39,123.66zm473.26 134.22c234.07,-0.27 828.23,287.45 1078.13,480.73 892.05,689.93 588.18,1808.57 -281.47,2058.74 -491.55,141.4 -4129.12,6.66 -4924.73,-38.43 -402.25,-22.79 -831.49,-32.35 -1043.61,-473.35 -220.95,-459.36 64.59,-802.06 310.42,-1126.38 479.56,-632.69 2742.66,-3474.73 3175.37,-3742.67 934.85,-578.86 2123.63,240.2 1646.3,1716.16 -59.37,183.59 -176.45,335.79 -181.4,525.51l-991.59 -155.39c-3396.33,-216.41 -1932.8,3594.28 -24.43,2345 473.91,-310.24 1091.73,-1139.7 1237.01,-1589.92zm1017.1 2980.42l340.27 -156.68c238.55,-288.1 699.98,-502.28 715.16,-1291.69 4.2,-218.29 -60.36,-377.73 -68.36,-552.27l-126 -273.66c-236.27,-235.01 -188.89,-387.49 -753.02,-741.97 -232.8,-146.27 -680.97,-347.22 -900.77,-370.35 1.48,-161.59 102.52,-299.91 142.86,-449.14 130.18,-481.46 216.68,-825.45 122.28,-1329.2l-20.12 -168.84 -196.23 -426.17c-302.72,-253.61 -231.73,-400.04 -846.43,-620.26 -503.86,-180.5 -769.89,-4.11 -1060.63,-0.88l-266.02 122.5c-88.18,92.65 -244.79,183.73 -352.31,297.11 -107.86,113.72 -187.75,213.24 -291.64,325.92 -181.07,196.41 -377.9,433.33 -544.32,642.2 -537.05,674.06 -2258.61,2630.33 -2547.32,3276.86 -170.78,382.42 -57.6,588.53 -53.16,817.43l139.66 303.31c180.98,158.21 277.6,386.76 676.87,506.4 253.26,75.89 493.77,83.61 808.37,96.72 1492.13,62.19 2727.6,78.37 4210.52,85.18 660.64,3.03 590.66,-76.14 870.34,-92.52z"/>
   <path class="fil1" d="M3963 3330.58c105.96,-337.4 456.67,-946.86 812.6,-1267.31 1185.51,-1067.3 2253.08,930.54 667.47,1305.72 -424.66,100.48 -1163.62,47.62 -1480.07,-38.41zm-480.21 -106.71c-233.66,13.77 -843.42,-239.23 -1104.05,-417.77 -930.33,-637.36 -691.46,-1771.66 162.32,-2071.54 482.58,-169.51 4121.87,-244.69 4918.76,-245.55 402.89,-0.43 831.97,-15.64 1069.16,412.41 247.07,445.85 -18.24,804.44 -244.97,1142.39 -442.29,659.29 -2537.79,3627.06 -2954.33,3919.5 -899.93,631.79 -2133.95,-117.37 -1742.5,-1618.39 48.69,-186.71 156.8,-345.4 150.81,-535.09l998.9 97.96c3403.16,20.26 1722.38,-3699.73 -110.8,-2342.51 -455.24,337.05 -1024.22,1200.75 -1143.3,1658.59zm-1187.22 -2916.83l-330.68 176.04c-221.54,301.38 -669.85,541.8 -639.5,1330.77 8.39,218.17 82.03,373.63 100.08,547.41l141.57 265.94c249.43,221 210.91,375.95 794.54,697.32 240.85,132.62 699.86,307.39 920.62,317.81 7.84,161.41 -85.06,305.32 -116.73,456.63 -102.2,488.16 -168.73,836.57 -45.45,1334.04l29.82 167.4 220.48 414.15c316.83,235.74 254.41,386.01 880.78,570.43 513.42,151.16 768.84,-40.28 1058.91,-60.27l258.52 -137.62c82.69,-97.58 233.79,-197.54 334.59,-316.93 101.13,-119.75 175.15,-223.72 272.37,-342.2 169.45,-206.51 352.29,-454.38 506.39,-672.5 497.3,-703.91 2103.22,-2756.17 2354.18,-3418.27 148.45,-391.62 23.58,-590.87 5.95,-819.13l-156.91 -294.75c-189.8,-147.51 -299.44,-370.12 -704.94,-466.54 -257.22,-61.17 -497.78,-55.01 -812.61,-49.96 -1493.22,23.93 -2727.58,79 -4208.42,157.69 -659.72,35.06 -585.29,110.07 -863.56,142.54z"/>
  </g>
  <path class="fil2" d="M13997.81 4706.6l-1211.07 1354.09 1295.39 0c104.99,0 184.35,24.8 237.26,73.57 53.73,49.6 80.19,113.25 80.19,190.14 0,74.4 -26.46,134.74 -78.54,181.86 -52.91,47.12 -132.27,70.27 -238.91,70.27l-1792.22 0c-125.65,0 -219.9,-27.28 -281.9,-82.67 -62,-54.56 -93.41,-129.78 -93.41,-224.85 0,-56.22 21.49,-113.26 65.31,-171.12 43.81,-57.04 133.92,-162.03 271.15,-315.79 145.49,-161.2 277.76,-307.52 395.97,-438.96 119.04,-130.62 228.99,-252.97 330.67,-367.05 101.68,-113.25 186,-209.97 252.96,-289.33 66.96,-79.36 120.7,-147.15 161.2,-203.36l-982.91 0c-135.57,0 -238.08,-12.4 -307.52,-36.38 -69.44,-23.97 -104.16,-87.62 -104.16,-190.96 0,-75.22 25.62,-136.4 78.53,-181.04 52.08,-45.47 127.31,-67.79 224.03,-67.79l1518.6 0c140.53,0 248,20.67 323.22,62 75.23,40.51 112.43,114.91 112.43,220.73 0,35.54 -7.44,72.74 -21.49,109.94 -14.88,38.03 -30.59,69.44 -48.78,93.42 -17.36,23.97 -42.16,53.73 -72.74,88.45 -30.59,34.72 -68.62,76.06 -113.26,124.83zm1398.74 -1363.18l0 1010.19c124,-129.79 251.3,-228.99 380.26,-297.6 128.97,-68.62 289.34,-103.34 479.47,-103.34 219.9,0 412.51,52.08 577.85,156.25 165.33,104.16 293.47,255.44 384.4,453.01 91.76,197.58 137.23,432.35 137.23,703.5 0,200.05 -25.63,383.57 -76.06,550.56 -51.25,166.99 -124.82,312.48 -221.54,434.83 -96.72,123.18 -214.94,217.42 -352.99,284.38 -138.06,66.96 -290.16,100.85 -456.33,100.85 -101.68,0 -197.57,-12.4 -286.85,-36.37 -89.28,-23.98 -166.16,-56.22 -228.99,-95.9 -62.83,-38.85 -116.56,-80.18 -161.2,-122.34 -43.81,-41.34 -102.51,-104.17 -175.25,-188.49l0 65.31c0,124 -29.76,218.24 -89.28,281.9 -60.35,63.65 -136.41,95.89 -228.17,95.89 -93.41,0 -167.81,-32.24 -224.02,-95.89 -55.39,-63.66 -83.5,-157.9 -83.5,-281.9l0 -2885.91c0,-133.92 27.28,-235.6 81.02,-304.21 54.56,-68.62 129.78,-102.51 226.5,-102.51 101.68,0 180.22,33.07 234.78,98.37 55.39,65.31 82.67,158.72 82.67,279.42zm31.41 1964.17c0,262.88 60.35,464.59 180.21,605.95 120.7,141.36 277.77,211.63 472.86,211.63 166.16,0 310,-71.92 429.87,-216.59 119.87,-144.67 180.21,-351.34 180.21,-620.83 0,-173.6 -24.8,-324.06 -75.22,-449.71 -49.6,-125.65 -120.7,-223.2 -212.46,-291.82 -92.59,-68.61 -199.23,-102.5 -322.4,-102.5 -125.65,0 -237.25,33.89 -335.63,102.5 -98.37,68.62 -176.08,167.82 -232.29,297.61 -57.04,129.78 -85.15,284.37 -85.15,463.76zm3057.03 -994.49l0 80.19c116.56,-153.76 243.87,-266.19 381.92,-338.11 138.06,-71.92 296.78,-107.47 476.17,-107.47 174.43,0 329.84,38.03 467.89,114.08 137.23,75.23 239.74,182.7 307.53,321.58 43.81,81.01 71.92,167.81 85.14,262.06 12.4,93.41 19.02,212.45 19.02,357.94l0 1230.92c0,132.27 -30.59,232.29 -90.94,300.08 -60.34,67.79 -139.71,101.68 -236.43,101.68 -98.37,0 -178.56,-34.72 -240.56,-104.16 -61.17,-69.44 -91.76,-168.64 -91.76,-297.6l0 -1102.78c0,-217.42 -30.58,-384.4 -90.93,-500.14 -60.35,-114.91 -181.04,-172.77 -362.08,-172.77 -117.39,0 -224.86,34.72 -322.41,104.98 -96.72,70.27 -167.81,166.99 -212.45,290.17 -32.24,98.37 -48.77,281.89 -48.77,552.21l0 828.33c0,133.92 -31.42,233.95 -93.42,300.91 -62,66.96 -142.19,100.85 -239.73,100.85 -95.07,0 -173.6,-34.72 -234.78,-104.16 -61.17,-69.44 -91.76,-168.64 -91.76,-297.6l0 -1911.27c0,-125.65 27.28,-219.89 81.84,-281.89 55.39,-62 129.79,-93.42 224.86,-93.42 57.86,0 110.77,14.06 157.06,41.34 47.13,27.28 84.33,68.61 112.43,123.17 28.11,54.56 42.16,122.35 42.16,200.88zm3007.44 -969.68l0 1010.19c124,-129.79 251.3,-228.99 380.26,-297.6 128.97,-68.62 289.34,-103.34 479.47,-103.34 219.9,0 412.51,52.08 577.85,156.25 165.33,104.16 293.47,255.44 384.4,453.01 91.76,197.58 137.23,432.35 137.23,703.5 0,200.05 -25.63,383.57 -76.06,550.56 -51.25,166.99 -124.82,312.48 -221.54,434.83 -96.72,123.18 -214.94,217.42 -352.99,284.38 -138.06,66.96 -290.16,100.85 -456.33,100.85 -101.68,0 -197.57,-12.4 -286.85,-36.37 -89.28,-23.98 -166.16,-56.22 -228.99,-95.9 -62.83,-38.85 -116.56,-80.18 -161.2,-122.34 -43.81,-41.34 -102.51,-104.17 -175.25,-188.49l0 65.31c0,124 -29.76,218.24 -89.28,281.9 -60.35,63.65 -136.41,95.89 -228.17,95.89 -93.41,0 -167.81,-32.24 -224.02,-95.89 -55.39,-63.66 -83.5,-157.9 -83.5,-281.9l0 -2885.91c0,-133.92 27.28,-235.6 81.02,-304.21 54.56,-68.62 129.78,-102.51 226.5,-102.51 101.68,0 180.22,33.07 234.78,98.37 55.39,65.31 82.67,158.72 82.67,279.42zm31.41 1964.17c0,262.88 60.35,464.59 180.21,605.95 120.7,141.36 277.77,211.63 472.86,211.63 166.16,0 310,-71.92 429.87,-216.59 119.87,-144.67 180.21,-351.34 180.21,-620.83 0,-173.6 -24.8,-324.06 -75.22,-449.71 -49.6,-125.65 -120.7,-223.2 -212.46,-291.82 -92.59,-68.61 -199.23,-102.5 -322.4,-102.5 -125.65,0 -237.25,33.89 -335.63,102.5 -98.37,68.62 -176.08,167.82 -232.29,297.61 -57.04,129.78 -85.15,284.37 -85.15,463.76z"/>
 </g>
</svg>
